<svg id="visual" viewBox="0 0 1920 1080" width="1920" height="1080" xmlns="http://www.w3.org/2000/svg" xmlns:xlink="http://www.w3.org/1999/xlink" version="1.1"><rect x="0" y="0" width="1920" height="1080" fill="#191919"></rect><path d="M903 1080L821 1080L821 900L861 900L861 720L951 720L951 540L963 540L963 360L880 360L880 180L934 180L934 0L1920 0L1920 180L1920 180L1920 360L1920 360L1920 540L1920 540L1920 720L1920 720L1920 900L1920 900L1920 1080L1920 1080Z" fill="#d23b15"></path><path d="M910 1080L914 1080L914 900L1169 900L1169 720L912 720L912 540L935 540L935 360L964 360L964 180L1100 180L1100 0L1920 0L1920 180L1920 180L1920 360L1920 360L1920 540L1920 540L1920 720L1920 720L1920 900L1920 900L1920 1080L1920 1080Z" fill="#db4713"></path><path d="M1255 1080L1110 1080L1110 900L1224 900L1224 720L1202 720L1202 540L1138 540L1138 360L1192 360L1192 180L1219 180L1219 0L1920 0L1920 180L1920 180L1920 360L1920 360L1920 540L1920 540L1920 720L1920 720L1920 900L1920 900L1920 1080L1920 1080Z" fill="#e55311"></path><path d="M1479 1080L1417 1080L1417 900L1498 900L1498 720L1449 720L1449 540L1344 540L1344 360L1379 360L1379 180L1350 180L1350 0L1920 0L1920 180L1920 180L1920 360L1920 360L1920 540L1920 540L1920 720L1920 720L1920 900L1920 900L1920 1080L1920 1080Z" fill="#ee5f0f"></path><path d="M1503 1080L1491 1080L1491 900L1550 900L1550 720L1467 720L1467 540L1527 540L1527 360L1494 360L1494 180L1613 180L1613 0L1920 0L1920 180L1920 180L1920 360L1920 360L1920 540L1920 540L1920 720L1920 720L1920 900L1920 900L1920 1080L1920 1080Z" fill="#f66a0b"></path><path d="M1823 1080L1823 1080L1823 900L1718 900L1718 720L1822 720L1822 540L1668 540L1668 360L1773 360L1773 180L1710 180L1710 0L1920 0L1920 180L1920 180L1920 360L1920 360L1920 540L1920 540L1920 720L1920 720L1920 900L1920 900L1920 1080L1920 1080Z" fill="#ff7606"></path></svg>