<svg id="visual" viewBox="0 0 1920 400" width="1920" height="400" xmlns="http://www.w3.org/2000/svg" xmlns:xlink="http://www.w3.org/1999/xlink" version="1.1"><rect x="0" y="0" width="1920" height="400" fill="#191919"></rect><path d="M903 400L821 400L821 333L861 333L861 267L951 267L951 200L963 200L963 133L880 133L880 67L934 67L934 0L1920 0L1920 67L1920 67L1920 133L1920 133L1920 200L1920 200L1920 267L1920 267L1920 333L1920 333L1920 400L1920 400Z" fill="#d23b15"></path><path d="M910 400L914 400L914 333L1169 333L1169 267L912 267L912 200L935 200L935 133L964 133L964 67L1100 67L1100 0L1920 0L1920 67L1920 67L1920 133L1920 133L1920 200L1920 200L1920 267L1920 267L1920 333L1920 333L1920 400L1920 400Z" fill="#db4713"></path><path d="M1255 400L1110 400L1110 333L1224 333L1224 267L1202 267L1202 200L1138 200L1138 133L1192 133L1192 67L1219 67L1219 0L1920 0L1920 67L1920 67L1920 133L1920 133L1920 200L1920 200L1920 267L1920 267L1920 333L1920 333L1920 400L1920 400Z" fill="#e55311"></path><path d="M1479 400L1417 400L1417 333L1498 333L1498 267L1449 267L1449 200L1344 200L1344 133L1379 133L1379 67L1350 67L1350 0L1920 0L1920 67L1920 67L1920 133L1920 133L1920 200L1920 200L1920 267L1920 267L1920 333L1920 333L1920 400L1920 400Z" fill="#ee5f0f"></path><path d="M1503 400L1491 400L1491 333L1550 333L1550 267L1467 267L1467 200L1527 200L1527 133L1494 133L1494 67L1613 67L1613 0L1920 0L1920 67L1920 67L1920 133L1920 133L1920 200L1920 200L1920 267L1920 267L1920 333L1920 333L1920 400L1920 400Z" fill="#f66a0b"></path><path d="M1823 400L1823 400L1823 333L1718 333L1718 267L1822 267L1822 200L1668 200L1668 133L1773 133L1773 67L1710 67L1710 0L1920 0L1920 67L1920 67L1920 133L1920 133L1920 200L1920 200L1920 267L1920 267L1920 333L1920 333L1920 400L1920 400Z" fill="#ff7606"></path></svg>